<?xml version="1.0" encoding="utf-8"?>
<!-- Generator: Adobe Illustrator 16.0.0, SVG Export Plug-In . SVG Version: 6.00 Build 0)  -->
<!DOCTYPE svg PUBLIC "-//W3C//DTD SVG 1.1//EN" "http://www.w3.org/Graphics/SVG/1.1/DTD/svg11.dtd">
<svg
  version="1.1"
  id="レイヤー_1"
  xmlns="http://www.w3.org/2000/svg"
  xmlns:xlink="http://www.w3.org/1999/xlink"
  x="0px"
  y="0px"
  width="2048px"
  height="2048px"
  viewBox="0 0 2048 2048"
  style="enable-background: new 0 0 2048 2048"
  xml:space="preserve"
>
  <style type="text/css">
    <![CDATA[
    	.st0{fill:#000000;}
    ]]>
  </style>

  <path
    class="st0"
    d="M1630.305,850.418l156.431-532.502c18.65-63.408,14.207-129.945-12.471-187.315
	C1746.07,69.975,1696.796,26.68,1635.508,8.687c-55.859-16.389-115.929-9.438-169.093,19.583
	c-59.603,32.524-105.32,90.427-125.408,158.834l-148.26,504.633c-27.169-7.673-54.4-15.073-81.6-22.063
	c-33.553-8.618-66.767-16.458-99.806-23.949l44.046-149.911c18.63-63.42,14.19-129.94-12.49-187.308
	c-28.203-60.633-77.468-103.931-138.756-121.917c-55.87-16.395-115.923-9.44-169.094,19.576
	c-59.607,32.535-105.321,90.427-125.414,158.844l-38.417,128.319l147.545,20.091l32.139-106.955
	c9.159-31.25,29.105-57.184,54.698-71.151c13.21-7.198,33.826-14.37,57.083-7.537c20.04,5.874,36.628,21.07,46.71,42.748
	c11.613,24.941,13.287,54.731,4.737,83.852l-47.533,161.78c-48.466-8.792-95.886-16.246-142.046-22.362l-27.92-2.611l-149.34-13.943
	L516.74,681.211l-12.048,41.004l-8.249,28.085l-74.637,254.047c-27.872-14.086-54.522-28.388-79.459-42.875
	c-172.046-99.964-197.574-167.106-194.691-178.375c1.277-4.912,14.589-20.947,60.404-35.852
	c50.66-16.483,127.578-26.326,206.79-27.343l41.675-147.06c-107.579-1.995-215.363,8.873-294.055,34.479
	C52.775,643.022,16.333,702.691,5.077,746.458c-28.091,109.257,60.486,224.404,263.285,342.217
	c34.532,20.067,71.83,39.773,111.329,59.047l-171.092,582.353c-39.48,134.443,28.369,273.171,151.245,309.219
	c55.853,16.423,115.919,9.455,169.087-19.567c59.609-32.534,105.322-90.427,125.416-158.829l160.937-547.806
	c39.951,11.786,80.542,23.072,121.78,33.667c19.762,5.075,39.392,9.817,58.979,14.501l-56.085,190.915
	c-39.479,134.457,28.36,273.174,151.256,309.229c55.857,16.408,115.905,9.444,169.089-19.565
	c59.605-32.534,105.321-90.425,125.424-158.83l47.625-142.724l-146.117-24.966l-42.776,126.217
	c-9.165,31.264-29.118,57.173-54.716,71.159c-13.211,7.188-33.829,14.352-57.048,7.534c-44.998-13.199-68.091-70.002-51.464-126.603
	l59.063-201.045c57.811,11.251,114.265,20.631,169.029,28.173c51.297,7.065,100.93,12.434,148.687,16.191l42.561-144.868
	l87.596-298.194c218.377,104.885,321.551,203.802,312.381,239.456c-1.268,4.911-14.582,20.927-60.4,35.834
	c-57.198,18.616-148.095,28.648-240.405,29.021l-42.98,146.298c119.601,3.329,241.987-7.075,328.979-35.39
	c109.691-35.707,146.134-95.376,157.388-139.143C2080.849,1123.276,1895.444,973.04,1630.305,850.418z M1495.166,792.931
	l-41.678,141.87l-6.615,22.513l-1.282-0.398l-94.232,320.724c-46.275-5.909-94.696-13.298-145.29-22.464l-0.031,0.081l-1.751-0.381
	c-7.382-1.341-14.843-2.765-22.317-4.174c-46.547-8.817-94.714-19.047-144.391-30.804c-21.08-4.991-42.282-10.099-63.883-15.644
	c-39.645-10.185-78.629-21.016-116.941-32.318l91.014-304.413L803.638,835.88l-87.142,291.242l-41.499,141.249l-161.892,551.082
	c-9.191,31.234-29.132,57.157-54.731,71.127c-13.195,7.221-33.82,14.368-57.049,7.535c-45.008-13.193-68.089-69.987-51.47-126.583
	l144.672-492.436l20.784-70.737l41.692-141.922l0.496-1.666l97.296-331.185c44.38,4.917,170.466,23.295,170.466,23.295l38.8,8.415
	c34.319,6.472,69.662,13.847,105.717,21.905c19.713,4.412,39.656,9.076,59.851,13.975l8.64,1.874l-0.085,0.224
	c12.116,2.967,24.035,5.734,36.318,8.891c26.299,6.752,51.743,13.71,76.772,20.754l-84.65,300.214l144.258,31.262l81.183-288.474
	l41.479-141.182l148.695-506.171c9.195-31.254,29.133-57.184,54.735-71.154c13.192-7.201,33.81-14.365,57.063-7.541
	c20.054,5.889,36.648,21.074,46.73,42.752c11.594,24.937,13.278,54.739,4.726,83.846l-124.472,423.686l1.262,0.452L1495.166,792.931
	z"
  />
</svg>
